<?xml version="1.0" standalone="no"?>
<!DOCTYPE svg PUBLIC "-//W3C//DTD SVG 20010904//EN"
 "http://www.w3.org/TR/2001/REC-SVG-20010904/DTD/svg10.dtd">
<svg version="1.0" xmlns="http://www.w3.org/2000/svg"
 width="192.000000pt" height="192.000000pt" viewBox="0 0 192.000000 192.000000"
 preserveAspectRatio="xMidYMid meet">

<g transform="translate(0.000000,192.000000) scale(0.100000,-0.100000)"
fill="#000000" stroke="none">
<path d="M1515 1909 c-141 -21 -245 -105 -245 -199 0 -212 437 -284 604 -100
138 153 -84 339 -359 299z"/>
<path d="M485 1080 c304 -304 474 -481 465 -483 -8 -3 -46 -10 -85 -17 -79
-13 -115 -32 -115 -60 0 -39 89 -64 273 -79 l109 -8 214 -214 c117 -117 215
-211 217 -209 2 3 21 95 41 205 47 253 41 235 79 235 42 0 157 28 174 42 20
16 16 45 -9 62 -12 8 -54 21 -95 28 -40 6 -73 16 -73 22 0 5 32 172 70 372 39
199 70 367 70 373 0 8 -75 11 -245 11 l-245 0 0 -281 c0 -174 -4 -278 -9 -274
-6 3 -148 174 -317 380 l-307 375 -346 0 -346 0 480 -480z m1228 -541 c18 -1
43 -4 57 -8 35 -10 12 -21 -57 -28 -56 -6 -56 -6 -50 18 4 13 7 33 8 44 2 17
2 17 6 -2 3 -18 12 -23 36 -24z m-678 -9 l39 -40 -43 0 c-55 0 -184 20 -194
30 -8 7 5 11 101 25 23 4 42 11 42 16 0 18 16 8 55 -31z"/>
</g>
</svg>
